<svg xmlns="http://www.w3.org/2000/svg" xmlns:xlink="http://www.w3.org/1999/xlink" x="0" y="0" version="1.0" viewBox="0 0 1200 680" style="enable-background:new 0 0 1200 680" xml:space="preserve"><style type="text/css">.st0{fill:#413c57}.st1{fill:#a5d2db}.st2{fill:#c290d1}.st3{fill:#413c57;stroke:#c290d1;stroke-width:9.266;stroke-miterlimit:10}.st4{fill:none}.st5{fill:#f2f2f2}.st6{font-family:&apos;SourceSansPro-Black&apos;}.st7{font-size:76px}.st8{font-size:70px}</style><g id="Layer_8"><rect width="1200" height="680" class="st0"/></g><g id="Layer_9"><path d="M472.9,655.1V328.4c0-79-64.6-143.6-143.6-143.6h0c-79,0-143.6,64.6-143.6,143.6v326.8 c0,9.2,0.9,18.2,2.5,26.9h282.2C472.1,673.3,472.9,664.3,472.9,655.1z" class="st1"/><ellipse cx="334.9" cy="277.1" class="st0" rx="22.6" ry="50.9"/><ellipse cx="413.7" cy="351.8" class="st0" rx="22.6" ry="50.9"/><ellipse cx="332.5" cy="455.1" class="st0" rx="34.4" ry="77.5"/><ellipse cx="246.9" cy="351.8" class="st0" rx="22.6" ry="50.9"/><polygon points="340 377.6 342.5 429.2 363.2 397" class="st1"/><polyline points="297.2 397 320.4 377.6 317.9 429.2" class="st1"/><path d="M568.6,412.1c0-19-15.5-34.5-34.5-34.5h0c-19,0-34.5,15.5-34.5,34.5V682h69V412.1z" class="st1"/><path d="M161.8,420c0-19-15.5-34.5-34.5-34.5h0c-19,0-34.5,15.5-34.5,34.5v262h69V420z" class="st1"/></g><g id="Layer_10"><g><polygon points="473.1 268.7 581.5 207.1 478.4 277.2" class="st2"/></g><g><polygon points="413.5 193.7 486.4 90.8 421.8 199.2" class="st2"/></g><g><polygon points="319.6 168.8 324.6 47.8 329.6 168.8" class="st2"/></g><g><polygon points="176.8 275.2 69 207.1 181.8 266.5" class="st2"/></g><g><polygon points="231.9 199.2 167.4 90.8 240.3 193.7" class="st2"/></g><g><polygon points="486.4 335 612.6 340 486.4 345" class="st2"/></g><g><polygon points="44.6 340 170.8 335 170.8 345" class="st2"/></g></g><g id="Layer_7"><rect width="543.4" height="266.1" x="660.6" y="115.7" class="st3"/><rect width="543.4" height="112.6" x="660.6" y="445.2" class="st3"/><rect width="539.4" height="276.2" x="660.6" y="137.8" class="st4"/><text transform="matrix(1 0 0 1 715.3592 190.6812)"><tspan x="0" y="0" class="st5 st6 st7">Professional</tspan><tspan x="85.3" y="80" class="st5 st6 st7">Scaring</tspan><tspan x="70.9" y="160" class="st5 st6 st7">Services</tspan></text><rect width="539.4" height="84" x="660.6" y="470" class="st4"/><text class="st5 st6 st8" transform="matrix(1 0 0 1 692.2871 518.7197)">(000)-555-8876</text></g></svg>