<svg xmlns="http://www.w3.org/2000/svg" xmlns:xlink="http://www.w3.org/1999/xlink" id="Layer_2" x="0" y="0" version="1.0" viewBox="0 0 600 400" style="enable-background:new 0 0 600 400" xml:space="preserve"><style type="text/css">.st0{fill:#7f2361}.st1{fill:#b3356a}.st2{fill:#7f2361;stroke:#7f2361;stroke-linecap:round;stroke-linejoin:round;stroke-miterlimit:10}.st3{fill:#413c57}.st4{fill:#f0eff4}.st5{fill:none;stroke:#6d1b56;stroke-width:2;stroke-linecap:round;stroke-linejoin:round;stroke-miterlimit:10}.st6{fill:#0c1c15}.st10,.st7{stroke-width:2;stroke-linecap:round;stroke-linejoin:round;stroke-miterlimit:10}.st7{stroke:#0c1c15}.st7,.st8{fill:none}.st8,.st9{stroke-width:2;stroke-linecap:round;stroke-linejoin:round;stroke-miterlimit:10}.st8{stroke:#2c2942}.st9{fill:#bfd7b5;stroke:#99c199}.st10{fill:none;stroke:#d9d9e2}.st11{fill:#6d1b56}</style><path d="M418.8,724.6c0,0,14.4,98.2,29.7,116.8L417.3,817l13.9,35.5L403.4,817l4.2,35.5l-9.9-18.6V709.2L418.8,724.6z" class="st0"/><path d="M270.1,127.3c0,0-50.8,172.3-68.2,207S6.1,655.1,122.6,817l-5-52.6l18.6,52.6l-2.5-53.8l19.8,59.5v-49.6	l23.1,49.6c0,0-0.7-212,25.3-278.9c0,0-5,120.2,68.2,278.9c14.9,42.1,29.7,246.7,0,296.2H337c0,0-42.1-7.4-35.9-27.3	c6.2-19.8,37.2-183.9,35.9-220.1l11.2,247.4h49.6c0,0-34.7-12.4-33.5-52.1c1.2-39.7,33.5-233,33.5-233l21.1-109.3	c0,0,114-91.5,0-345.6c-14.9-68.2-16.1-266.5-16.1-266.5l-18.6-29.7l-99.2,17.4C284.9,100.1,296.1,122.4,270.1,127.3z" class="st1"/><path d="M397.7,833.9l8.7-45.1l-27.8,81.1l-4-79.1l-29,98.4L333,793.7L311,874.3l-7.4-78.1l-7.4,56.3l-13.6-54.3l3,56.5	l-25.3-54c3.2,7.4,6.4,14.9,9.9,22.3c14.9,42.1,29.7,246.7,0,296.2H337c0,0-42.1-7.4-35.9-27.3c6.2-19.8,37.2-183.9,35.9-220.1	l11.2,247.4h49.6c0,0-34.7-12.4-33.5-52.1S397.7,833.9,397.7,833.9z" class="st2"/><path d="M266.6,221.6c0,0,56.8,50.8,110.1,29.7c0,0-33.2,33-88-5L266.6,221.6z" class="st3"/><circle cx="329.6" cy="204.2" r="19.8" class="st4"/><circle cx="406.4" cy="203" r="19.8" class="st4"/><path d="M270.1,127.3c0,0-38.9-5.7-40.9-31.5c-2-25.5,40.9-59.5,40.9-59.5l-20.3,46.4l35.5,17.4	C284.9,100.1,294.9,124.9,270.1,127.3z" class="st4"/><path d="M384.1,82.7c0,0,35.5-26.5-7.4-57c0,0,86.8,10.7,26,86.8" class="st4"/><path d="M176.9,822.7c0,0-3.2-203.3,25.3-278.9l18.6-115.8l-33.5,86.3l15.6-86.3l-39.2,86.3l38.4-126.4l-58.3,137.3	l22.3-92.7l-35.9,75.4l15.6-64.2c0,0-123.5,223.6-23.1,373.3l-5-52.6l18.6,52.6l-2.5-53.8l19.8,59.5v-49.6L176.9,822.7z" class="st2"/><path d="M260.2,122.4c0,0-50.8,172.3-68.2,207S-3.9,650.2,112.7,812.1l-5-52.6l18.6,52.6l-2.5-53.8l19.8,59.5v-49.6	l23.1,49.6c0,0-0.7-212,25.3-278.9c0,0-5,120.2,68.2,278.9c14.9,42.1,29.7,246.7,0,296.2h66.9c0,0-42.1-7.4-35.9-27.3	c6.2-19.8,37.2-183.9,35.9-220.1l11.2,247.4h49.6c0,0-34.7-12.4-33.5-52.1c1.2-39.7,33.5-233,33.5-233l21.1-109.3	c0,0,114-91.5,0-345.6c-14.9-68.2-16.1-266.5-16.1-266.5l-18.6-29.7L275,95.1C275,95.1,286.2,117.4,260.2,122.4z" class="st5"/><g><path d="M298.8,189.1l-79.6-40.7l81.6,36.2c1.2,0.5,1.7,2,1.2,3.2C301.6,189.1,300.1,189.8,298.8,189.1L298.8,189.1z" class="st6"/></g><line x1="376.7" x2="339.5" y1="198" y2="198" class="st7"/><line x1="411.9" x2="393.8" y1="185.3" y2="166.8" class="st7"/><path d="M266.6,221.6c0,0,56.8,50.8,110.1,29.7c0,0-22.3,22.1-60.5,9.3c-14.2-4.8-26.8-13.4-36.8-24.6L266.6,221.6z" class="st8"/><path d="M408.9,719.6c0,0,14.4,101.9,29.7,116.8l-31.2-24.3l13.9,35.5l-27.8-35.5l4.2,35.5l-9.9-18.6" class="st5"/><ellipse cx="372" cy="176.9" class="st9" rx="7.9" ry="16.9" transform="matrix(0.9903 -0.1393 0.1393 0.9903 -21.0171 53.5408)"/><circle cx="396.5" cy="198" r="19.8" class="st7"/><path d="M260.2,122.4c0,0-38.9-5.7-40.9-31.5s40.9-59.5,40.9-59.5l-20.3,46.4l35.5,17.4	C275,95.1,284.9,119.9,260.2,122.4z" class="st10"/><path d="M374.2,77.8c0,0,35.5-26.5-7.4-57c0,0,86.8,10.7,26,86.8" class="st10"/><g><path d="M324.6,878.5l1.7-111.6l0,0c0-0.2,0.2-0.5,0.5-0.7l44.9-19.1l-44.4,20.6l0.5-0.7l1.7,111.6 c0,1.5-1,2.5-2.5,2.5C325.8,881,324.6,880,324.6,878.5L324.6,878.5z" class="st11"/></g><g><path d="M184.5,554c10.2-32.7,19.6-65.7,28.3-98.7c4.2-16.6,8.4-33.2,11.9-49.8c1.7-8.4,3.5-16.9,4.7-25.3 c1.5-8.4,2.2-16.9,2.2-25.5c0.2,8.7-0.5,17.1-1.7,25.5c-1,8.4-2.5,16.9-4,25.3c-3.2,16.9-6.9,33.7-10.7,50.3 c-7.9,33.5-16.6,66.4-25.8,99.7c-0.2,1.2-1.7,2-3,1.7C185,556.7,184.3,555.2,184.5,554L184.5,554L184.5,554z" class="st0"/></g><ellipse cx="320.7" cy="176.9" class="st9" rx="7.9" ry="16.9" transform="matrix(0.9903 -0.1393 0.1393 0.9903 -21.5192 46.3927)"/><circle cx="319.7" cy="199.2" r="19.8" class="st7"/></svg>