<svg xmlns="http://www.w3.org/2000/svg" xmlns:xlink="http://www.w3.org/1999/xlink" id="Layer_3" x="0" y="0" version="1.0" viewBox="0 0 367 496" style="enable-background:new 0 0 367 496" xml:space="preserve"><style type="text/css">.st0{fill:#a2c4bc}.st1{fill:#413c57}.st2{fill:#f0eff4}.st3{fill:#d44368}.st4{fill:#e7efc5}.st5{stroke:#87af9d}.st5,.st6,.st7,.st8,.st9{fill:none;stroke-width:2;stroke-linecap:round;stroke-linejoin:round;stroke-miterlimit:10}.st6{stroke:#d9d9e2}.st7{stroke:#af286f}.st8{stroke:#d3d19c}.st9{stroke:#413c57}.st10{fill:#87af9d}.st11,.st12{fill:#3c2745;stroke:#0c1c15;stroke-width:2;stroke-linecap:round;stroke-linejoin:round;stroke-miterlimit:10}.st12{fill:#808cc3;stroke:#6d6db2}</style><path d="M136,102.3c21.5-3.4,133.7-21.7,179.9,49.9s-9.8,178.4-2.7,265c6,29.4,10.3,30.8,10.3,30.8s40.2,13.9,43.5,29.6	l-143.5,12.5l-2.7-23.7c0,0-41.9,7.4-50.6,4.1l-0.5,19.6L24,496c0,0,15.2-39.7,66.9-37.8c0,0-46.8-197.6-42.4-238.9	S82.2,110.9,136,102.3z" class="st0"/><path d="M95.2,212.8c0,0,81,19,103.8,8.7s66.3-37.5,89.2-39.1c22.8-1.6-14.1,102.2-40.2,121.2s-93.5,38.1-116.9,0	S77.8,228.6,95.2,212.8z" class="st1"/><path d="M268.6,276.1l-22.8-13.8h-88.6l-34.7,27.6c0,0-52-61-27.2-77.1c0,0,67.1,17.9,103.8,8.7c0,0,65-36.4,89.2-39.1	S268.6,276.1,268.6,276.1z" class="st2"/><path d="M131.1,303.6c0,0,44.6-26.8,116.9,0C248,303.6,159.9,357.4,131.1,303.6z" class="st3"/><path d="M169.7,118.8c-20.6,5-56,54.4,0,82.6S248,157,230,141.7S185.5,115,169.7,118.8z" class="st4"/><path d="M129.5,99.1c21.5-3.4,133.7-21.7,179.9,49.9s-9.8,178.4-2.7,265c6,29.4,10.3,30.8,10.3,30.8	s40.2,13.9,43.5,29.6L217,486.8l-2.7-23.7c0,0-41.9,7.4-50.6,4.1l-0.5,19.6l-145.7,6c0,0,15.2-39.7,66.9-37.8	c0,0-46.8-197.6-42.4-238.9S75.6,107.6,129.5,99.1z" class="st5"/><polyline points="115.9 286.7 150.7 259 239.3 259 262.1 272.8" class="st6"/><path d="M124.6,300.3c0,0,44.6-26.8,116.9,0" class="st7"/><path d="M163.2,115.5c-20.6,5-56,54.4,0,82.6s78.3-44.4,60.3-59.7S178.9,111.7,163.2,115.5z" class="st8"/><path d="M169.7,99.1c0,0,38.1-53.8,66.9-57c50-5.4,46.2,40.2,64.1,44" class="st9"/><path d="M143.1,99.1c0,0-34.8-118.4-96.8-95c-25,7.1-32.6,40.8-32.6,40.8" class="st9"/><path d="M88.7,209.6c0,0,81,19,103.8,8.7s66.3-37.5,89.2-39.1c22.8-1.6-14.1,102.2-40.2,121.2	c-26.1,19-93.5,38.1-116.9,0S71.3,225.4,88.7,209.6z" class="st5"/><g><path d="M106.9,452c6.5,4.2,13.7,7,21,9.1c3.7,1.1,7.4,1.9,11.2,2.7c1.9,0.3,3.8,0.7,5.7,1c1.9,0.2,3.8,0.6,5.7,0.7 c7.6,0.8,15.3,1.2,22.9,1c7.7-0.2,15.3-0.8,22.9-1.7c15.2-1.9,30.2-5.2,45-9.4c3.7-1.1,7.4-2.2,11-3.3c3.6-1.2,7.3-2.4,10.9-3.7 c3.6-1.3,7.3-2.6,10.9-3.9c3.6-1.4,7.2-2.8,10.8-4.1c-3.5,1.6-7,3.1-10.6,4.6c-3.6,1.5-7.1,2.9-10.7,4.3c-3.6,1.4-7.2,2.6-10.9,3.9 c-3.6,1.2-7.3,2.4-11,3.6c-14.8,4.5-29.9,7.9-45.2,9.9c-7.7,0.9-15.4,1.5-23.1,1.6c-7.7,0.1-15.5-0.3-23.2-1.3 c-1.9-0.2-3.8-0.6-5.7-0.9c-1.9-0.3-3.8-0.7-5.7-1.1c-3.8-0.9-7.5-1.8-11.2-3c-3.7-1.2-7.3-2.6-10.8-4.2 C113.4,456.2,110,454.3,106.9,452z" class="st10"/></g><circle cx="176.7" cy="146.3" r="12.3" class="st11"/><ellipse cx="304.3" cy="91.5" class="st12" rx="15.5" ry="9.7" transform="matrix(0.7605 -0.6493 0.6493 0.7605 13.4661 219.4747)"/><ellipse cx="10.7" cy="42.6" class="st12" rx="15.5" ry="9.7" transform="matrix(7.864237e-02 -0.9969 0.9969 7.864237e-02 -32.5516 49.8893)"/></svg>