<svg xmlns="http://www.w3.org/2000/svg" xmlns:xlink="http://www.w3.org/1999/xlink" id="Layer_2" x="0" y="0" version="1.0" viewBox="0 0 160.8 444.5" style="enable-background:new 0 0 160.8 444.5" xml:space="preserve"><style type="text/css">.st0{fill:#7f2361}.st1{fill:#b3356a}.st2{fill:#7f2361;stroke:#7f2361;stroke-linecap:round;stroke-linejoin:round;stroke-miterlimit:10}.st3{fill:#413c57}.st4{fill:#f0eff4}.st5{fill:none;stroke:#6d1b56;stroke-width:2;stroke-linecap:round;stroke-linejoin:round;stroke-miterlimit:10}.st6{fill:#0c1c15}.st10,.st7{stroke-width:2;stroke-linecap:round;stroke-linejoin:round;stroke-miterlimit:10}.st7{stroke:#0c1c15}.st7,.st8{fill:none}.st8,.st9{stroke-width:2;stroke-linecap:round;stroke-linejoin:round;stroke-miterlimit:10}.st8{stroke:#2c2942}.st9{fill:#bfd7b5;stroke:#99c199}.st10{fill:none;stroke:#d9d9e2}.st11{fill:#6d1b56}</style><path d="M140.3,284.9c0,0,5.8,39.6,12,47.1l-12.6-9.8l5.6,14.3l-11.2-14.3l1.7,14.3l-4-7.5v-50.3L140.3,284.9z" class="st0"/><path d="M80.3,44c0,0-20.5,69.5-27.5,83.5s-79,129.4-32,194.7l-2-21.2l7.5,21.2l-1-21.7l8,24v-20l9.3,20	c0,0-0.3-85.5,10.2-112.5c0,0-2,48.5,27.5,112.5c6,17,12,99.5,0,119.5h27c0,0-17-3-14.5-11s15-74.2,14.5-88.8l4.5,99.8h20	c0,0-14-5-13.5-21s13.5-94,13.5-94l8.5-44.1c0,0,46-36.9,0-139.4c-6-27.5-6.5-107.5-6.5-107.5l-7.5-12l-40,7	C86.3,33,90.8,42,80.3,44z" class="st1"/><path d="M131.8,329l3.5-18.2l-11.2,32.7l-1.6-31.9l-11.7,39.7l-5.1-38.5l-8.9,32.5l-3-31.5l-3,22.7l-5.5-21.9l1.2,22.8	l-10.2-21.8c1.3,3,2.6,6,4,9c6,17,12,99.5,0,119.5h27c0,0-17-3-14.5-11s15-74.2,14.5-88.8l4.5,99.8h20c0,0-14-5-13.5-21	S131.8,329,131.8,329z" class="st2"/><path d="M78.9,82c0,0,22.9,20.5,44.4,12c0,0-13.4,13.3-35.5-2L78.9,82z" class="st3"/><circle cx="104.3" cy="75" r="8" class="st4"/><circle cx="135.3" cy="74.5" r="8" class="st4"/><path d="M80.3,44c0,0-15.7-2.3-16.5-12.7C63,21,80.3,7.3,80.3,7.3L72.1,26l14.3,7C86.3,33,90.3,43,80.3,44z" class="st4"/><path d="M126.3,26c0,0,14.3-10.7-3-23c0,0,35,4.3,10.5,35" class="st4"/><path d="M42.7,324.5c0,0-1.3-82,10.2-112.5l7.5-46.7l-13.5,34.8l6.3-34.8l-15.8,34.8l15.5-51l-23.5,55.4l9-37.4	l-14.5,30.4l6.3-25.9c0,0-49.8,90.2-9.3,150.6l-2-21.2l7.5,21.2l-1-21.7l8,24v-20L42.7,324.5z" class="st2"/><path d="M76.3,42c0,0-20.5,69.5-27.5,83.5s-79,129.4-32,194.7l-2-21.2l7.5,21.2l-1-21.7l8,24v-20l9.3,20	c0,0-0.3-85.5,10.2-112.5c0,0-2,48.5,27.5,112.5c6,17,12,99.5,0,119.5h27c0,0-17-3-14.5-11s15-74.2,14.5-88.8l4.5,99.8h20	c0,0-14-5-13.5-21s13.5-94,13.5-94l8.5-44.1c0,0,46-36.9,0-139.4c-6-27.5-6.5-107.5-6.5-107.5l-7.5-12l-40,7	C82.3,31,86.8,40,76.3,42z" class="st5"/><g><path d="M91.9,68.9L59.8,52.5l32.9,14.6c0.5,0.2,0.7,0.8,0.5,1.3C93,68.9,92.4,69.2,91.9,68.9 C91.9,68.9,91.9,68.9,91.9,68.9z" class="st6"/></g><line x1="123.3" x2="108.3" y1="72.5" y2="72.5" class="st7"/><line x1="138.3" x2="130.2" y1="69" y2="59.9" class="st7"/><path d="M78.9,82c0,0,22.9,20.5,44.4,12c0,0-13.4,13.3-35.5-2L78.9,82z" class="st8"/><path d="M136.3,282.9c0,0,5.8,41.1,12,47.1l-12.6-9.8l5.6,14.3l-11.2-14.3l1.7,14.3l-4-7.5" class="st5"/><ellipse cx="121.4" cy="64" class="st9" rx="3.2" ry="6.8" transform="matrix(0.9903 -0.1393 0.1393 0.9903 -7.7242 17.5272)"/><circle cx="131.3" cy="72.5" r="8" class="st7"/><path d="M76.3,42c0,0-15.7-2.3-16.5-12.7s16.5-24,16.5-24L68.1,24l14.3,7C82.3,31,86.3,41,76.3,42z" class="st10"/><path d="M122.3,24c0,0,14.3-10.7-3-23c0,0,35,4.3,10.5,35" class="st10"/><g><path d="M102.3,347l0.7-45l0,0c0-0.1,0.1-0.2,0.2-0.3l18.1-7.7l-17.9,8.3l0.2-0.3l0.7,45c0,0.6-0.4,1-1,1 C102.8,348,102.3,347.6,102.3,347C102.3,347,102.3,347,102.3,347z" class="st11"/></g><g><path d="M45.8,216.1c4.1-13.2,7.9-26.5,11.4-39.8c1.7-6.7,3.4-13.4,4.8-20.1c0.7-3.4,1.4-6.8,1.9-10.2 c0.6-3.4,0.9-6.8,0.9-10.3c0.1,3.5-0.2,6.9-0.7,10.3c-0.4,3.4-1,6.8-1.6,10.2c-1.3,6.8-2.8,13.6-4.3,20.3 c-3.2,13.5-6.7,26.8-10.4,40.2c-0.1,0.5-0.7,0.8-1.2,0.7C46,217.2,45.7,216.6,45.8,216.1C45.8,216.1,45.8,216.1,45.8,216.1 L45.8,216.1z" class="st0"/></g><ellipse cx="100.7" cy="64" class="st9" rx="3.2" ry="6.8" transform="matrix(0.9903 -0.1393 0.1393 0.9903 -7.9257 14.6488)"/><circle cx="100.3" cy="73" r="8" class="st7"/></svg>