<svg xmlns="http://www.w3.org/2000/svg" xmlns:xlink="http://www.w3.org/1999/xlink" x="0" y="0" version="1.0" viewBox="0 0 549.1 317.7" style="enable-background:new 0 0 549.1 317.7" xml:space="preserve"><style type="text/css">.st0{fill:#9b8189}.st1{fill:#a39396}.st2{fill:#70535f}.st3{stroke:#9b8189;stroke-width:.75}.st3,.st4,.st5,.st6{fill:none;stroke-linecap:round;stroke-miterlimit:10}.st4{stroke:#5e4550;stroke-width:.75}.st5{stroke:#9b8189}.st6{stroke:#82646f;stroke-width:.75}.st7{fill:#d9e2dc}.st8{fill:#fccbd5}.st9{fill:#fff}.st10{stroke:#e8b1cb}.st10,.st11,.st12{fill:none;stroke-linecap:round;stroke-miterlimit:10}.st11{stroke:#c3ccc2}.st12{stroke:#5e4550}</style><g id="Fills_1_"><polygon points="43.4 134.6 127.9 211.7 287.5 261.9 445.5 207.1 534.6 128.6 545.1 49.5 429.7 20 400.2 43.2 299.8 15.6 218.4 26 94.7 61.5 43.4 40.7 20 119.8" class="st0"/><polygon points="20 119.8 82.6 271.2 287.5 317.7 493.8 282.4 542.1 153.4 545.1 49.5 534.6 128.6 445.5 207.1 287.5 261.9 127.9 211.7 43.4 134.6 20 119.8" class="st1"/><polygon points="97.4 183.9 127.9 211.7 287.5 261.9 445.5 207.1 493.8 164.5 446.3 117.1 182.6 125.3 123.1 149" class="st2"/><polygon points="127.9 211.7 88.6 195.9 97.4 220.1 281.9 270.3 287.5 261.9" class="st1"/><polygon points="266.3 280.5 454.6 188.7 461.4 211.2 289.3 287" class="st1"/><polygon points="82.6 271.2 206.3 221 227.5 237.9 107.4 276.8" class="st1"/><polygon points="382.6 68.2 400.2 43.2 443.3 4.1 452.3 15.5 384.5 79.8" class="st0"/><polygon points="122.6 93.8 24.2 105.6 4.9 124.6 116.6 105.6" class="st0"/><polygon points="431.9 114.4 534.6 128.6 528.5 109.5 435.7 104.3" class="st0"/><polygon points="272.1 85.2 208.1 10.9 192.2 28.1 260.7 100.5" class="st0"/><polygon points="32.8 32.5 117.3 77.4 107.1 95.6 38.5 57.3" class="st0"/><polygon points="397.7 68.2 524 89.4 502.1 99 399.6 79.8" class="st0"/><polygon points="302.4 298.2 490 248.9 490 273.6 296.4 309.3" class="st1"/><polygon points="379.6 287 225.7 261.9 227.5 276.8 371.6 295.4" class="st1"/><polygon points="502.1 201.8 549.1 145 549.1 162.7 498.3 227.8" class="st1"/><polygon points="109.8 248.9 41.1 188.7 41.1 205.2 93.2 257.3" class="st1"/><polygon points="129.4 239.6 208.1 309.3 184.8 309.3 122.6 245.2" class="st1"/><polygon points="413.8 114.4 466.6 4.1 477.2 10.9 425.1 113.4" class="st0"/><polygon points="79.6 155.5 103 43.5 117.3 44.1 88.6 162.5" class="st0"/></g><g id="Lines_1_"><polygon points="39.6 131.8 124.1 208.9 283.7 259.1 441.7 204.3 530.8 125.8 541.3 46.7 425.9 17.2 396.4 40.4 296 12.9 214.6 23.2 90.9 58.7 39.6 37.9 16.2 117.1" class="st3"/><polyline points="490.1 161.7 442.5 114.3 178.8 122.5 119.3 146.2 93.7 181.1" class="st4"/><polyline points="541.3 46.7 538.3 150.6 490.1 279.6 283.7 314.9 78.8 268.4 16.2 117.1" class="st5"/><polygon points="124.1 208.9 84.9 193.2 93.7 217.3 278.1 267.5 283.7 259.1" class="st3"/><polygon points="262.5 277.7 450.8 185.9 457.6 208.4 285.6 284.2" class="st3"/><polygon points="78.8 268.4 202.5 218.2 223.7 235.1 103.6 274" class="st3"/><polygon points="378.8 65.4 396.4 40.4 439.5 1.4 448.5 12.7 380.8 77" class="st6"/><polygon points="118.8 91 20.4 102.8 1.1 121.8 112.8 102.8" class="st6"/><polygon points="428.2 111.6 530.8 125.8 524.7 106.7 431.9 101.6" class="st6"/><polygon points="268.3 82.4 204.4 8.1 188.5 25.3 256.9 97.7" class="st6"/><polygon points="29 29.7 113.5 74.6 103.3 92.9 34.7 54.5" class="st6"/><polygon points="393.9 65.4 520.2 86.6 498.3 96.2 395.9 77" class="st6"/><polygon points="298.6 295.4 486.3 246.1 486.3 270.8 292.7 306.5" class="st3"/><polygon points="375.8 284.2 221.9 259.1 223.7 274 367.8 292.6" class="st3"/><polygon points="498.3 199 545.3 142.2 545.3 159.9 494.6 225" class="st3"/><polygon points="106 246.1 37.3 185.9 37.3 202.5 89.4 254.5" class="st3"/><polygon points="125.6 236.8 204.4 306.5 181 306.5 118.8 242.4" class="st3"/><polygon points="410.1 111.6 462.9 1.4 473.4 8.1 421.4 110.6" class="st6"/><polygon points="75.8 152.7 99.2 40.7 113.5 41.3 84.9 159.7" class="st6"/></g><g id="Layer_7"><path d="M269.2,2.7c28.9-1.1,72.9,9,96.2,104.2c23.3,95.2-95.7,93.8-106.3,89.7c-10.6-4.1-74.9-22.8-42.5-135.2 C232.8,10.7,269.2,2.7,269.2,2.7z" class="st7"/><polygon points="239.4 69.4 257.6 97.7 261.6 77 303.1 83.6 294.5 65.3 319.3 73.4 314.3 60.1 285.9 40 260.6 60.1 254.5 45.7" class="st2"/><path d="M261.5,122.1c8.6-8.6,22.1-10.6,32.3-4c7.5,4.8,10.2,12.3,2.8,27.9c-12.1,25.7-56.7,5.9-38-20.9 C259.6,124,260.5,123,261.5,122.1z" class="st8"/><path d="M223.1,171.4c0,0,21.4-20,3.1-41.7c-10.6-11.4-18.7-15.5-18.7-15.5S203.8,144.4,223.1,171.4z" class="st8"/><path d="M313.8,142.8c8.5-9.3,31.4-1.5,19.7,16.2C321.9,176.7,302.6,155,313.8,142.8z" class="st8"/><path d="M368.3,134.9c0,0-30.8-3.8-31.5-30.6c-0.7-26.8,18.4-30.9,18.4-30.9S370.1,104.8,368.3,134.9z" class="st8"/><path d="M310.4,77c-15.3,6.5-0.7,24.3,10.9,17.2C333,87.1,323.7,71.3,310.4,77z" class="st8"/><path d="M310.4,35.6c-6.3,2.9-10.8-0.8-4.8-7C311.7,22.3,316.7,32.7,310.4,35.6z" class="st8"/><path d="M255.9,8.4c0,0,13.3,8.5,32.1-5.7C288,2.7,269-1.4,255.9,8.4z" class="st8"/><path d="M252,89.1c0,0-18.8,0.5-12.7-19.7L252,89.1z" class="st8"/><path d="M316.9,16.7c0,0-11.7,2.1-16-10.3C300.9,6.4,311.2,12,316.9,16.7z" class="st8"/><path d="M258.1,174.7c-6.7-1.1-19.2,10.6-6,14.4C265.2,192.9,267.7,176.2,258.1,174.7z" class="st8"/><path d="M275.3,197.9c0,0,9.2-23.1,38-5.2C313.3,192.7,291.5,199.3,275.3,197.9z" class="st8"/><path d="M254.1,25.3c-16.5-11.7-26.6,15.2-14.7,20.4C251.2,50.9,269.8,36.5,254.1,25.3z" class="st8"/><polygon points="346.2 192 356.8 186.4 368.4 192 352.6 198.1" class="st7"/><polygon points="281.4 207.6 328.5 207.6 323.6 212.6 310.4 212.6 315.2 220.2 313.3 227.3 298.6 217.7 263.9 222.8" class="st7"/><polygon points="202.9 211.4 234.2 211.2 239.4 203 225.2 203" class="st7"/><path d="M250.1,60.1c5-0.9,11.8,3.9,6,8.1C250.4,72.4,243.5,61.3,250.1,60.1z" class="st9"/><path d="M283.6,52c2.8-3,12.7,3.5,7,6.9C285,62.3,277.5,58.6,283.6,52z" class="st9"/><path d="M363.5,132.5c0,0-30.8-3.8-31.5-30.6s18.4-30.9,18.4-30.9" class="st10"/><path d="M251.2,6c0,0,12.2,9.7,30.9-4.5" class="st10"/><path d="M270.5,195.5c0,0,9.2-23.1,38-5.2" class="st10"/><path d="M218.3,169c0,0,21.4-20,3.1-41.7c-10.6-11.4-18.7-15.5-18.7-15.5" class="st10"/><path d="M312.2,14.3c0,0-11.7,3.3-16-9.1" class="st10"/><path d="M247.3,86.7c0,0-18.8,0.5-12.7-19.7" class="st10"/><path d="M305.7,74.6c-15.3,6.5-0.7,24.3,10.9,17.2C328.3,84.7,319,69,305.7,74.6z" class="st10"/><path d="M248,7.9c9.3-6.1,20.4-8.5,31.4-7c27.5,3.7,61.7,23.7,81.2,103.5c23.3,95.2-95.7,93.8-106.3,89.7 s-74.9-22.8-42.5-135.2C220.9,30.6,236.2,15.7,248,7.9z" class="st11"/><polygon points="234.6 67 252.8 95.4 256.9 74.6 298.4 81.2 289.8 63 314.6 71.1 309.5 57.7 281.2 37.6 255.9 57.7 249.8 43.4" class="st11"/><path d="M256.7,119.8c8.6-8.6,22.1-10.6,32.3-4c7.5,4.8,10.2,12.3,2.8,27.9c-12.1,25.7-56.7,5.9-38-20.9 C254.8,121.6,255.8,120.7,256.7,119.8z" class="st10"/><path d="M309,140.4c8.5-9.3,31.4-1.5,19.7,16.2S297.9,152.6,309,140.4z" class="st10"/><path d="M305.7,33.2c-6.3,2.9-10.8-0.8-4.8-7C307,19.9,311.9,30.4,305.7,33.2z" class="st10"/><path d="M253.3,172.3c-6.7-1.1-19.2,10.6-6,14.4C260.4,190.5,262.9,173.8,253.3,172.3z" class="st10"/><path d="M249.3,23c-16.5-11.7-26.6,15.2-14.7,20.4S265,34.1,249.3,23z" class="st10"/><polygon points="341.4 189.6 352 184 363.7 189.6 347.8 195.7" class="st11"/><polygon points="276.6 205.2 323.7 205.2 318.8 210.3 305.7 210.3 310.5 217.9 308.6 224.9 293.8 215.3 259.1 220.4" class="st11"/><polygon points="198.1 209.1 229.4 208.8 234.6 200.6 220.4 200.6" class="st11"/><path d="M249.3,60.1c5-0.9,11.8,3.9,6,8.1S242.7,61.3,249.3,60.1z" class="st12"/><path d="M284.4,50.8c2.8-3,12.7,3.5,7,6.9C285.7,61.1,278.3,57.4,284.4,50.8z" class="st12"/><polyline points="234.6 67 219.2 81.1 208.6 71.1" class="st11"/><polyline points="309.5 57.7 326 63.4 328.9 54.5 340.1 48.4" class="st11"/></g></svg>